<svg class="screen-reader-text" xmlns="http://www.w3.org/2000/svg"><defs><symbol id="icon-search" viewBox="0 0 30 32"><path d="M20.571 14.857q0-3.304-2.348-5.652t-5.652-2.348-5.652 2.348-2.348 5.652 2.348 5.652 5.652 2.348 5.652-2.348 2.348-5.652zm9.143 14.857q0 .929-.679 1.607T27.428 32q-.964 0-1.607-.679l-6.125-6.107q-3.196 2.214-7.125 2.214-2.554 0-4.884-.991t-4.018-2.679T.99 19.74t-.991-4.884.991-4.884 2.679-4.018 4.018-2.679 4.884-.991 4.884.991 4.018 2.679 2.679 4.018.991 4.884q0 3.929-2.214 7.125l6.125 6.125q.661.661.661 1.607z"/></symbol><symbol id="icon-facebook" viewBox="0 0 19 32"><path d="M17.125.214v4.714h-2.804q-1.536 0-2.071.643T11.714 7.5v3.375h5.232l-.696 5.286h-4.536v13.554H6.25V16.161H1.696v-5.286H6.25V6.982q0-3.321 1.857-5.152T13.053 0q2.625 0 4.071.214z"/></symbol><symbol id="icon-twitter" viewBox="0 0 26 28"><path d="M25.312 6.375a10.85 10.85 0 01-2.531 2.609c.016.219.016.438.016.656 0 6.672-5.078 14.359-14.359 14.359-2.859 0-5.516-.828-7.75-2.266.406.047.797.063 1.219.063 2.359 0 4.531-.797 6.266-2.156a5.056 5.056 0 01-4.719-3.5c.313.047.625.078.953.078.453 0 .906-.063 1.328-.172a5.048 5.048 0 01-4.047-4.953v-.063a5.093 5.093 0 002.281.641 5.044 5.044 0 01-2.25-4.203c0-.938.25-1.797.688-2.547a14.344 14.344 0 0010.406 5.281 5.708 5.708 0 01-.125-1.156 5.045 5.045 0 015.047-5.047 5.03 5.03 0 013.687 1.594 9.943 9.943 0 003.203-1.219 5.032 5.032 0 01-2.219 2.781c1.016-.109 2-.391 2.906-.781z"/></symbol><symbol id="icon-instagram" viewBox="0 0 27 32"><path d="M18.286 16q0-1.893-1.339-3.232t-3.232-1.339-3.232 1.339T9.144 16t1.339 3.232 3.232 1.339 3.232-1.339T18.286 16zm2.464 0q0 2.929-2.054 4.982t-4.982 2.054-4.982-2.054T6.678 16t2.054-4.982 4.982-2.054 4.982 2.054T20.75 16zm1.929-7.321q0 .679-.482 1.161t-1.161.482-1.161-.482-.482-1.161.482-1.161 1.161-.482 1.161.482.482 1.161zM13.714 4.75l-1.366-.009q-1.241-.009-1.884 0t-1.723.054-1.839.179-1.277.33q-.893.357-1.571 1.036T3.018 7.911q-.196.518-.33 1.277t-.179 1.839-.054 1.723 0 1.884T2.464 16t-.009 1.366 0 1.884.054 1.723.179 1.839.33 1.277q.357.893 1.036 1.571t1.571 1.036q.518.196 1.277.33t1.839.179 1.723.054 1.884 0 1.366-.009 1.366.009 1.884 0 1.723-.054 1.839-.179 1.277-.33q.893-.357 1.571-1.036t1.036-1.571q.196-.518.33-1.277t.179-1.839.054-1.723 0-1.884T24.964 16t.009-1.366 0-1.884-.054-1.723-.179-1.839-.33-1.277q-.357-.893-1.036-1.571t-1.571-1.036q-.518-.196-1.277-.33t-1.839-.179-1.723-.054-1.884 0-1.366.009zM27.429 16q0 4.089-.089 5.661-.179 3.714-2.214 5.75t-5.75 2.214q-1.571.089-5.661.089t-5.661-.089q-3.714-.179-5.75-2.214T.09 21.661Q.001 20.09.001 16t.089-5.661q.179-3.714 2.214-5.75t5.75-2.214q1.571-.089 5.661-.089t5.661.089q3.714.179 5.75 2.214t2.214 5.75q.089 1.571.089 5.661z"/></symbol><symbol id="icon-500px" viewBox="0 0 448 512"><path d="M103.3 344.3c-6.5-14.2-6.9-18.3 7.4-23.1 25.6-8 8 9.2 43.2 49.2h.3v-93.9c1.2-50.2 44-92.2 97.7-92.2 53.9 0 97.7 43.5 97.7 96.8 0 63.4-60.8 113.2-128.5 93.3-10.5-4.2-2.1-31.7 8.5-28.6 53 0 89.4-10.1 89.4-64.4 0-61-77.1-89.6-116.9-44.6-23.5 26.4-17.6 42.1-17.6 157.6 50.7 31 118.3 22 160.4-20.1 24.8-24.8 38.5-58 38.5-93 0-35.2-13.8-68.2-38.8-93.3-24.8-24.8-57.8-38.5-93.3-38.5s-68.8 13.8-93.5 38.5c-.3.3-16 16.5-21.2 23.9l-.5.6c-3.3 4.7-6.3 9.1-20.1 6.1-6.9-1.7-14.3-5.8-14.3-11.8V20c0-5 3.9-10.5 10.5-10.5h241.3c8.3 0 8.3 11.6 8.3 15.1 0 3.9 0 15.1-8.3 15.1H130.3v132.9h.3c104.2-109.8 282.8-36 282.8 108.9 0 178.1-244.8 220.3-310.1 62.8zm63.3-260.8c-.5 4.2 4.6 24.5 14.6 20.6C306 56.6 384 144.5 390.6 144.5c4.8 0 22.8-15.3 14.3-22.8-93.2-89-234.5-57-238.3-38.2zM393 414.7C283 524.6 94 475.5 61 310.5c0-12.2-30.4-7.4-28.9 3.3 24 173.4 246 256.9 381.6 121.3 6.9-7.8-12.6-28.4-20.7-20.4zM213.6 306.6c0 4 4.3 7.3 5.5 8.5 3 3 6.1 4.4 8.5 4.4 3.8 0 2.6.2 22.3-19.5 19.6 19.3 19.1 19.5 22.3 19.5 5.4 0 18.5-10.4 10.7-18.2L265.6 284l18.2-18.2c6.3-6.8-10.1-21.8-16.2-15.7L249.7 268c-18.6-18.8-18.4-19.5-21.5-19.5-5 0-18 11.7-12.4 17.3L234 284c-18.1 17.9-20.4 19.2-20.4 22.6z"/></symbol><symbol id="icon-flickr" viewBox="0 0 448 512"><path d="M400 32H48C21.5 32 0 53.5 0 80v352c0 26.5 21.5 48 48 48h352c26.5 0 48-21.5 48-48V80c0-26.5-21.5-48-48-48zM144.5 319c-35.1 0-63.5-28.4-63.5-63.5s28.4-63.5 63.5-63.5 63.5 28.4 63.5 63.5-28.4 63.5-63.5 63.5zm159 0c-35.1 0-63.5-28.4-63.5-63.5s28.4-63.5 63.5-63.5 63.5 28.4 63.5 63.5-28.4 63.5-63.5 63.5z"/></symbol><symbol id="icon-youtube" viewBox="0 0 576 512"><path d="M549.655 124.083c-6.281-23.65-24.787-42.276-48.284-48.597C458.781 64 288 64 288 64S117.22 64 74.629 75.486c-23.497 6.322-42.003 24.947-48.284 48.597-11.412 42.867-11.412 132.305-11.412 132.305s0 89.438 11.412 132.305c6.281 23.65 24.787 41.5 48.284 47.821C117.22 448 288 448 288 448s170.78 0 213.371-11.486c23.497-6.321 42.003-24.171 48.284-47.821 11.412-42.867 11.412-132.305 11.412-132.305s0-89.438-11.412-132.305zm-317.51 213.508V175.185l142.739 81.205-142.739 81.201z"/></symbol><symbol id="icon-chain" viewBox="0 0 30 32"><path d="M26 21.714q0-.714-.5-1.214l-3.714-3.714q-.5-.5-1.214-.5-.75 0-1.286.571.054.054.339.33t.384.384.268.339.232.455.063.491q0 .714-.5 1.214t-1.214.5q-.268 0-.491-.063t-.455-.232-.339-.268-.384-.384-.33-.339q-.589.554-.589 1.304 0 .714.5 1.214l3.679 3.696q.482.482 1.214.482.714 0 1.214-.464l2.625-2.607q.5-.5.5-1.196zM13.446 9.125q0-.714-.5-1.214L9.267 4.215q-.5-.5-1.214-.5-.696 0-1.214.482L4.214 6.804q-.5.5-.5 1.196 0 .714.5 1.214l3.714 3.714q.482.482 1.214.482.75 0 1.286-.554-.054-.054-.339-.33t-.384-.384-.268-.339-.232-.455-.063-.491q0-.714.5-1.214t1.214-.5q.268 0 .491.063t.455.232.339.268.384.384.33.339q.589-.554.589-1.304zm15.983 12.589q0 2.143-1.518 3.625l-2.625 2.607q-1.482 1.482-3.625 1.482-2.161 0-3.643-1.518l-3.679-3.696q-1.482-1.482-1.482-3.625 0-2.196 1.571-3.732l-1.571-1.571q-1.536 1.571-3.714 1.571-2.143 0-3.643-1.5l-3.714-3.714Q.286 10.143.286 8t1.518-3.625l2.625-2.607Q5.911.286 8.054.286q2.161 0 3.643 1.518L15.376 5.5q1.482 1.482 1.482 3.625 0 2.196-1.571 3.732l1.571 1.571q1.536-1.571 3.714-1.571 2.143 0 3.643 1.5l3.714 3.714q1.5 1.5 1.5 3.643z"/></symbol><symbol id="icon-arrow-up" viewBox="0 0 32 32"><path d="M27.414 12.586l-10-10a2 2 0 00-2.828 0l-10 10a2 2 0 102.828 2.828L14 8.828V28a2 2 0 104 0V8.828l6.586 6.586c.39.39.902.586 1.414.586s1.024-.195 1.414-.586a2 2 0 000-2.828z"/></symbol><symbol id="icon-sharing" viewBox="0 0 24 24"><path d="M20.9 9.4c.1-.2.1-.5 0-.8-.1-.1-.1-.2-.2-.3l-5-5c-.4-.4-1-.4-1.4 0s-.4 1 0 1.4L17.6 8H8c-2.8 0-5 2.2-5 5v7c0 .6.4 1 1 1s1-.4 1-1v-7c0-1.7 1.3-3 3-3h9.6l-3.3 3.3c-.4.4-.4 1 0 1.4.2.2.5.3.7.3s.5-.1.7-.3l5-5c.1-.1.2-.2.2-.3z"/></symbol></defs></svg>